<svg xmlns="http://www.w3.org/2000/svg" width="172.505" height="78" viewBox="0 0 172.505 78">
  <g id="组_947" data-name="组 947" transform="translate(7723.505 -9498)">
    <rect id="矩形_6027" data-name="矩形 6027" width="172" height="78" transform="translate(-7723 9498)" fill="none"/>
    <g id="组_946" data-name="组 946" transform="translate(-7682.134 9531)">
      <path id="路径_1529" data-name="路径 1529" d="M340.058,780.439a11.753,11.753,0,0,0,1.988-1.751,8.338,8.338,0,0,0,1.3-1.886h-2.555v-1.609h4.231v1.6A12.06,12.06,0,0,1,344.4,778a12.381,12.381,0,0,1-.8,1.2,13.777,13.777,0,0,1-1.034,1.21,16.5,16.5,0,0,1-1.325,1.231Zm.906,1.73h10.571v1.514H340.964Zm7.15-8.191h-6.3v-1.623h9.341v1.609l-3.055,1.474c.089.207.178.4.263.587s.178.363.277.535q.554-.338,1.129-.764t1.047-.831l.96,1.365a11.8,11.8,0,0,1-1,.758q-.608.419-1.2.784a8.944,8.944,0,0,0,1.224,1.136q.682.527,1.6,1.121l-.947,1.339a6.415,6.415,0,0,1-1.115-.716,10.12,10.12,0,0,1-1.162-1.075,12.751,12.751,0,0,1-1.1-1.352,10.541,10.541,0,0,1-.912-1.562v3.407a2.25,2.25,0,0,1-.095.7,1.013,1.013,0,0,1-.3.46,1.312,1.312,0,0,1-.527.264,4.586,4.586,0,0,1-.784.128l-.838.068-.487-1.527.675-.068a2.025,2.025,0,0,0,.352-.047.5.5,0,0,0,.209-.1.351.351,0,0,0,.1-.183,1.384,1.384,0,0,0,.027-.3v-4.515Z" transform="translate(-340.058 -771.544)" fill="#1e1e1e"/>
      <path id="路径_1530" data-name="路径 1530" d="M360.636,777.22c-.152.18-.342.4-.567.656s-.442.494-.649.71q.324.257.628.506c.2.167.371.313.507.439l-.743,1.2-.447-.412q-.257-.236-.541-.493v3.893h-1.554V779.1c-.125.153-.257.311-.392.473s-.279.329-.432.5l-.906-1.393a17.009,17.009,0,0,0,1.582-1.886,19.133,19.133,0,0,0,1.081-1.682h-1.96V773.5h1.325l-.365-1.8,1.514-.082.339,1.879h.838V775c-.152.306-.317.616-.493.932s-.367.639-.575.973v.595c.18-.189.357-.383.529-.581s.323-.384.46-.555Zm6.827,2.461c-.127-.082-.245-.164-.357-.25l-.332-.25v4.42H361.2v-4.218l-.324.243-.824-1.365a11.9,11.9,0,0,0,1.988-1.832,9.931,9.931,0,0,0,1.432-2.17h1.082a8.742,8.742,0,0,0,1.514,2.176,11.668,11.668,0,0,0,2.217,1.839Zm-3.663-6.935q-.554.771-1.163,1.527t-1.285,1.447l-1.081-1.149a8.034,8.034,0,0,0,.615-.594q.332-.352.656-.738c.216-.255.423-.518.621-.783s.365-.506.5-.724Zm2.028,5.624a11.171,11.171,0,0,1-1.034-1.1,7.811,7.811,0,0,1-.751-1.081,6.828,6.828,0,0,1-.682,1.081,10.229,10.229,0,0,1-.981,1.1Zm-.541,1.568h-2.6v2.122h2.6Zm1.352-4.339q-.2-.257-.534-.649t-.689-.791c-.24-.266-.473-.521-.7-.764s-.421-.437-.574-.581l1.068-1.04q.229.23.561.575c.22.23.45.468.689.716s.471.495.7.737.415.451.568.621Z" transform="translate(-342.361 -771.435)" fill="#1e1e1e"/>
      <path id="路径_1531" data-name="路径 1531" d="M374.843,778.709v3.555a1.407,1.407,0,0,1-.391,1.136,1.972,1.972,0,0,1-1.082.392l-1.122.094-.392-1.636,1.013-.094a.455.455,0,0,0,.311-.128.682.682,0,0,0,.082-.4v-2.406q-.474.148-.893.284c-.279.09-.512.162-.7.215l-.23-1.7q.351-.107.832-.244c.319-.09.651-.189.993-.3v-1.96h-1.338v-1.662h1.338v-2.042l1.581.069v1.973H376.1v1.662h-1.258v1.473l.784-.27.1.77.122.866ZM383,784.075q-1.1-.433-2-.858a14.828,14.828,0,0,1-1.649-.9,17.67,17.67,0,0,1-3.582,1.758l-.906-1.5q.933-.31,1.7-.642a14.632,14.632,0,0,0,1.386-.683,8.874,8.874,0,0,1-.885-1,7.075,7.075,0,0,1-.71-1.163l1.015-.54h-1.352v-1.541h.8l-1.122-1.109a6.1,6.1,0,0,0,.609-.561,1.533,1.533,0,0,0,.311-.479,1.7,1.7,0,0,0,.108-.534c.009-.194.014-.44.014-.736v-1.434h5.124v2.325a.661.661,0,0,0,.088.426.7.7,0,0,0,.426.1,8.131,8.131,0,0,0,.932,0l-.109,1.541a14.717,14.717,0,0,1-1.527,0,1.88,1.88,0,0,1-1.054-.332,1.125,1.125,0,0,1-.42-.98v-1.568h-1.8v.622a3.478,3.478,0,0,1-.291,1.4,3.688,3.688,0,0,1-1.075,1.319h5.651v1.513a8.7,8.7,0,0,1-.818,1.44,8.284,8.284,0,0,1-1.17,1.318,13.736,13.736,0,0,0,1.372.6q.764.29,1.724.6Zm-5.043-5.529a5.436,5.436,0,0,0,1.338,1.8,6.1,6.1,0,0,0,.947-.906,4.8,4.8,0,0,0,.6-.892Z" transform="translate(-344.726 -771.463)" fill="#1e1e1e"/>
      <path id="路径_1532" data-name="路径 1532" d="M387.143,775.755c.117-.064.3-.174.561-.332s.527-.324.81-.5l.825-.513q.4-.251.615-.4c-.152-.09-.329-.19-.527-.3s-.4-.216-.6-.324-.4-.212-.587-.311-.356-.19-.5-.27l.65-1.19c.143.072.323.16.54.264s.438.212.663.324.444.222.655.331.385.2.52.271l-.716,1.176.472.661.339.513c-.127.072-.329.192-.609.358s-.575.341-.885.521l-.893.52c-.283.167-.483.291-.6.371ZM395.2,781.7q.447.109.988.236l1.054.25.973.231.743.175-.378,1.256-1.021-.27q-.615-.162-1.271-.324l-1.257-.311q-.6-.149-.993-.243l.257-1h-2.257l.3.973q-.4.135-.98.311t-1.19.358q-.614.183-1.209.338c-.4.1-.745.187-1.041.25l-.3-1.257c.216-.045.476-.106.777-.182s.615-.158.94-.243.65-.176.98-.271.638-.187.926-.277h-2.446v-4.8h1.662l-.46-.973q.933-.216,1.554-.42a6.759,6.759,0,0,0,1.021-.412,2.181,2.181,0,0,0,.594-.426,1.129,1.129,0,0,0,.263-.46,1.233,1.233,0,0,0,.054-.216q.027-.148.054-.284h-.756q-.271.352-.562.669t-.615.629l-1.19-.865a8.619,8.619,0,0,0,1.156-1.285,9.228,9.228,0,0,0,.859-1.46l1.446.405c-.046.109-.093.215-.142.318s-.1.2-.156.3h5.11v1.285l-1.163,1.244-1.257-.635.676-.609H395.2l-.108.527a.116.116,0,0,0-.013.041.1.1,0,0,1-.014.041,3.887,3.887,0,0,0,1.508.919,12.8,12.8,0,0,0,2.63.609l-.514,1.325c-.19-.045-.374-.09-.554-.135l-.541-.135v4.8Zm-4.893-3.784v.364h5.772v-.364Zm5.772,1.216h-5.772v.365h5.772Zm-5.772,1.568h5.772v-.365h-5.772Zm4.1-5.258a4,4,0,0,1-1.162.825,10.265,10.265,0,0,1-1.718.635h6.07a12.576,12.576,0,0,1-1.845-.635A5.483,5.483,0,0,1,394.4,775.444Z" transform="translate(-347.063 -771.402)" fill="#1e1e1e"/>
      <path id="路径_1533" data-name="路径 1533" d="M414.082,784.044q-.864-.379-1.581-.764a12.489,12.489,0,0,1-1.325-.818,10.988,10.988,0,0,1-1.216.838,16.2,16.2,0,0,1-1.528.8l-.7-1.244a.984.984,0,0,1-.156.419.955.955,0,0,1-.3.27,1.519,1.519,0,0,1-.446.169,5.588,5.588,0,0,1-.615.1l-.594.068-.487-1.663.6-.081a1.128,1.128,0,0,0,.486-.149q.123-.094.123-.419v-1.717h-1.2a9.244,9.244,0,0,1-.122,1.176,7.41,7.41,0,0,1-.257,1.034,7.99,7.99,0,0,1-.386.959q-.222.466-.493.953l-1.379-.851a12.127,12.127,0,0,0,.568-1.088,5.553,5.553,0,0,0,.365-1.156,11.615,11.615,0,0,0,.2-1.569q.061-.918.061-2.325v-4.839h4.082v3.8a4,4,0,0,0,.6-.527,1.758,1.758,0,0,0,.318-.486,1.824,1.824,0,0,0,.128-.527c.019-.19.027-.411.027-.663v-1.6H413.3v2.42a.755.755,0,0,0,.067.385c.044.067.148.106.311.115q.419.014.838,0l-.135,1.461a12.678,12.678,0,0,1-1.419,0,3.027,3.027,0,0,1-.568-.068.861.861,0,0,1-.379-.182.737.737,0,0,1-.216-.358,2.161,2.161,0,0,1-.067-.595V773.7h-1.406v.568a4.97,4.97,0,0,1-.061.831,2.39,2.39,0,0,1-.209.662,2.658,2.658,0,0,1-.405.595,5.919,5.919,0,0,1-.649.615h4.947v1.555A10.482,10.482,0,0,1,413.3,780a7.444,7.444,0,0,1-.974,1.378,9.69,9.69,0,0,0,1.149.589q.636.276,1.446.574Zm-8.935-10.369v1.663h1.19v-1.663Zm1.19,4.65v-1.46h-1.19v1.46Zm1.432,4.11a12.2,12.2,0,0,0,2.15-1.067,8.345,8.345,0,0,1-.825-1.062,9.165,9.165,0,0,1-.69-1.264l.988-.513h-1.3v-1.555h.879l-1.2-1v6.461Zm3.3-2.014a4.968,4.968,0,0,0,.7-.933,8.864,8.864,0,0,0,.472-.959h-2.352A5.746,5.746,0,0,0,411.068,780.421Z" transform="translate(-349.347 -771.513)" fill="#1e1e1e"/>
      <path id="路径_1534" data-name="路径 1534" d="M429.456,777.862l-.473-.5q-.027.5-.061,1.156t-.067,1.284c-.022.42-.043.8-.06,1.129s-.031.564-.041.69a3.317,3.317,0,0,1-.183.98,1.253,1.253,0,0,1-.4.554,1.667,1.667,0,0,1-.636.284,7.571,7.571,0,0,1-.878.141l-.8.094L425.388,782l.8-.081a2.124,2.124,0,0,0,.488-.088.529.529,0,0,0,.263-.183.682.682,0,0,0,.115-.311c.019-.126.036-.293.055-.5q.013-.134.04-.52t.061-.81q.033-.426.06-.805t.027-.5h-1.865a13.683,13.683,0,0,1-.243,1.643,6.9,6.9,0,0,1-.473,1.427,6.569,6.569,0,0,1-.8,1.3,9.292,9.292,0,0,1-1.216,1.257l-1.176-1.257a9.516,9.516,0,0,0,.987-.885,4.388,4.388,0,0,0,.676-.919,4.473,4.473,0,0,0,.419-1.108,8.521,8.521,0,0,0,.2-1.454h-1.1v-.756l-.378.419-.879-.878v6.691h-1.609v-5.826c-.126.189-.259.381-.4.575s-.285.385-.438.575l-.947-1.433a10.484,10.484,0,0,0,.845-1.21,16.419,16.419,0,0,0,.777-1.453q.364-.77.669-1.6t.52-1.622l1.486.5q-.2.718-.426,1.372t-.479,1.277V776.5a11.145,11.145,0,0,0,1.581-2.13,12.33,12.33,0,0,0,1.068-2.44l1.568.541a12.9,12.9,0,0,1-.953,2.136,15.566,15.566,0,0,1-1.264,1.919h4.786q-.42-.5-.758-.993a10.353,10.353,0,0,1-.622-1.034,12.315,12.315,0,0,1-.527-1.156,13.374,13.374,0,0,1-.445-1.345l1.568-.42a13.48,13.48,0,0,0,.561,1.542,9.56,9.56,0,0,0,.683,1.284,9.107,9.107,0,0,0,.851,1.135,14.693,14.693,0,0,0,1.055,1.082Z" transform="translate(-351.662 -771.428)" fill="#1e1e1e"/>
      <path id="路径_1535" data-name="路径 1535" d="M439.158,774.379q-.108.216-.231.426c-.081.14-.166.277-.257.412h5.894v6.731a3.358,3.358,0,0,1-.094.879,1.171,1.171,0,0,1-.3.541,1.259,1.259,0,0,1-.561.3,4.919,4.919,0,0,1-.878.135l-.919.081-.568-1.581,1-.1a1.268,1.268,0,0,0,.345-.06.444.444,0,0,0,.2-.142.56.56,0,0,0,.1-.257,2.652,2.652,0,0,0,.027-.432h-5.042v2.46h-1.622v-5.555a19.39,19.39,0,0,1-1.474,1.271l-1.027-1.474a13.913,13.913,0,0,0,1.872-1.642,13.573,13.573,0,0,0,1.576-1.994h-2.65v-1.6h3.528c.1-.207.191-.416.277-.628s.165-.426.237-.643l1.757.3c-.135.343-.27.667-.406.974h5.813v1.6Zm3.757,2.325h-5.042v.865h5.042Zm-5.042,3.177h5.042v-.892h-5.042Z" transform="translate(-353.996 -771.419)" fill="#1e1e1e"/>
      <path id="路径_1536" data-name="路径 1536" d="M453.313,776.405q.149.311.3.6a4.8,4.8,0,0,1,.283.656,5.024,5.024,0,0,1,.209.857,7.579,7.579,0,0,1,.082,1.2,4.311,4.311,0,0,1-.082.94,1.249,1.249,0,0,1-.236.527.862.862,0,0,1-.358.257,2.521,2.521,0,0,1-.447.115l-.716.135-.568-1.554.513-.109a.631.631,0,0,0,.4-.223,1.085,1.085,0,0,0,.115-.642,3.359,3.359,0,0,0-.345-1.372,13.932,13.932,0,0,0-.683-1.223q.269-.689.547-1.439a10.037,10.037,0,0,0,.426-1.48h-1.081v10.124h-1.46v-11.72h3.974v1.6a12.35,12.35,0,0,1-.385,1.439Q453.584,775.744,453.313,776.405Zm6.218,4.367a6.287,6.287,0,0,0,1.061.825,9.214,9.214,0,0,0,1.345.676l-.919,1.392a15.118,15.118,0,0,1-1.548-1.007,7.9,7.9,0,0,1-1.237-1.142,7.313,7.313,0,0,1-.947-1.386,9.337,9.337,0,0,1-.689-1.723h-.513v3.406c.135-.054.278-.112.426-.175l.46-.2.453-.2c.145-.064.279-.122.405-.175l.352,1.405c-.044.026-.135.071-.27.134s-.3.135-.494.217-.4.17-.628.27-.446.2-.663.3c-.27.125-.507.243-.709.351a4.452,4.452,0,0,1-.52.243l-.7-1.419a.591.591,0,0,0,.345-.243,1.185,1.185,0,0,0,.06-.446v-9.786h6.218v6.313h-.257l.784.987q-.4.351-.885.723T459.531,780.772Zm-3.447-7.246v.947h3.19v-.947Zm0,3.433h3.19v-1.013h-3.19Zm1.96,1.447q.149.378.3.7a5.86,5.86,0,0,0,.345.621q.433-.283.851-.621a8.333,8.333,0,0,0,.77-.7Z" transform="translate(-356.446 -771.499)" fill="#1e1e1e"/>
      <path id="路径_1537" data-name="路径 1537" d="M470.687,772.386a18.429,18.429,0,0,1-1.852,3.311,22.051,22.051,0,0,1-2.555,3.014l-1.23-1.3a17.01,17.01,0,0,0,2.379-2.629,13.776,13.776,0,0,0,1.649-2.954Zm2.555,5.88q.379.5.777,1.095t.777,1.2q.379.6.717,1.183t.6,1.067l-1.405,1.04c-.091-.18-.187-.364-.291-.553s-.215-.388-.331-.595q-.677.068-1.48.128l-1.622.122c-.546.041-1.082.083-1.609.129s-1.011.09-1.454.134c-.162.019-.318.038-.466.061s-.286.047-.411.075l-.514-1.771a2.13,2.13,0,0,0,.5-.183,1.69,1.69,0,0,0,.447-.372,9.485,9.485,0,0,0,.655-.872q.372-.548.77-1.224t.8-1.432q.4-.757.75-1.515l1.622.649q-.324.7-.7,1.419t-.743,1.365q-.372.649-.73,1.183a10.206,10.206,0,0,1-.643.872q.839-.054,1.886-.129t2.075-.169q-.352-.568-.7-1.1t-.655-.966Zm.027-6.611a15.487,15.487,0,0,0,.777,1.758,10.914,10.914,0,0,0,.913,1.453,9.307,9.307,0,0,0,1.1,1.23,12.186,12.186,0,0,0,1.359,1.088l-1.067,1.419a9.576,9.576,0,0,1-1.514-1.27,11.205,11.205,0,0,1-1.2-1.487,14.7,14.7,0,0,1-.987-1.69q-.447-.891-.866-1.879Z" transform="translate(-358.653 -771.44)" fill="#1e1e1e"/>
      <path id="路径_1538" data-name="路径 1538" d="M489.989,776.167h-8.5V774.64h8.5Zm.46,5.63a.447.447,0,0,1-.1.209.455.455,0,0,1-.2.122,2.059,2.059,0,0,1-.331.067l-.851.122.594,1.676,1.068-.149a3.72,3.72,0,0,0,.818-.189,1.055,1.055,0,0,0,.493-.365,1.459,1.459,0,0,0,.237-.635,6.924,6.924,0,0,0,.06-1.027v-9.543h-9.989v1.662h8.232v7.718A1.74,1.74,0,0,1,490.448,781.8Zm-1.42-4.684V782.2h-6.637v-5.083Zm-1.771,1.582h-3.1v1.9h3.1Z" transform="translate(-361.098 -771.504)" fill="#1e1e1e"/>
    </g>
    <path id="联合_32" data-name="联合 32" d="M14.52,36.638a36.405,36.405,0,0,1-4.007-4.02c.424-.169.769.019,1.107.05a29.363,29.363,0,0,0,5.253-.118c2.023-.177,4.042-.412,6.077-.423a16.557,16.557,0,0,1,2.957.227,1.963,1.963,0,0,1,1.052.441c-1.066,1.017-2.081,1.994-3.1,2.962a7.537,7.537,0,0,1-5.24,2.346H18.6A6.737,6.737,0,0,1,14.52,36.638Zm-.392-7.144a31.342,31.342,0,0,0-5.216-1.4c-.719-.117-1.446-.184-2.173-.233a1.127,1.127,0,0,1-.784-.339C4.4,25.928,2.739,24.426,1.322,22.7A5.736,5.736,0,0,1,.251,17.3,5.774,5.774,0,0,1,1.7,14.806,17.766,17.766,0,0,1,6.3,11.168a14.834,14.834,0,0,1,5.21-1.72,16.7,16.7,0,0,1,6.36.305c.2.054.391.128.733.241a12.843,12.843,0,0,0-3.734.831,8.921,8.921,0,0,0-4.015,3.587,8.152,8.152,0,0,0-.586,8.125,8.608,8.608,0,0,0,7.209,5.288,9.215,9.215,0,0,0,8.542-3.905,15.363,15.363,0,0,0,2.858-6.866,30.229,30.229,0,0,0,.333-7.6c-.012-.181-.118-.434.074-.531.242-.122.346.16.484.3q2.524,2.524,5.044,5.053A6.443,6.443,0,0,1,36.942,19.5a5.629,5.629,0,0,1-1.26,3.206,63.409,63.409,0,0,1-5.5,5.623,8.175,8.175,0,0,1-3.548,1.681,21.069,21.069,0,0,1-5.176.853c-.119,0-.238,0-.356,0A21.234,21.234,0,0,1,14.128,29.493Zm3.446-6.859a30.967,30.967,0,0,1-2.662-2.705,1.185,1.185,0,0,1,.046-1.672A23.1,23.1,0,0,1,17.7,15.544a1.043,1.043,0,0,1,.844-.3,1.007,1.007,0,0,1,.8.229c.9.891,1.827,1.762,2.682,2.7a1.264,1.264,0,0,1-.049,1.944c-.78.84-1.577,1.665-2.4,2.462a1.328,1.328,0,0,1-1.994.056Zm9.352-6.309a8.948,8.948,0,0,0-3.5-5.147A17.22,17.22,0,0,0,15.507,8.26a23.444,23.444,0,0,0-7.054.071c-.274.043-.551.064-.827.1-.106.013-.215.024-.279-.082s.014-.194.091-.265c2.175-2.008,4.145-4.226,6.32-6.233A7.435,7.435,0,0,1,17.1.1a4.858,4.858,0,0,1,3.543.706,21.829,21.829,0,0,1,3.925,3.32,9.641,9.641,0,0,1,2.717,4.012,15.478,15.478,0,0,1,.771,4.614,19.863,19.863,0,0,1-.531,6.221c-.017.062-.049.12-.127.311C27.217,18.208,27.165,17.257,26.926,16.326Z" transform="translate(-7723 9518)" fill="#cb9e4f" stroke="rgba(0,0,0,0)" stroke-miterlimit="10" stroke-width="1"/>
  </g>
</svg>
